<?xml version="1.0" standalone="no"?><!DOCTYPE svg PUBLIC "-//W3C//DTD SVG 1.1//EN" "http://www.w3.org/Graphics/SVG/1.1/DTD/svg11.dtd"><svg t="1761817833103" class="icon" viewBox="0 0 1024 1024" version="1.1" xmlns="http://www.w3.org/2000/svg" p-id="17059" id="mx_n_1761817833103" xmlns:xlink="http://www.w3.org/1999/xlink" width="200" height="200"><path d="M768 0a256 256 0 0 1 255.68 243.2l0.32 12.8v512a256 256 0 0 1-243.2 255.68l-12.8 0.32H256A256 256 0 0 1 0.32 780.8L0 768V256A256 256 0 0 1 243.2 0.32L256 0h512z m-21.184 326.4L453.888 609.28 323.84 483.136a64 64 0 1 0-89.088 91.904L409.28 744.256a64 64 0 0 0 89.024 0.128L835.776 418.56a64 64 0 0 0-88.96-92.16z" fill="#A7C080" p-id="17060"></path></svg>